<svg xmlns="http://www.w3.org/2000/svg" width="35" height="35" viewBox="0 0 35 35" xml:space="preserve" class="b69iQl _5Yd-hZ" aria-hidden="true"><style></style><g id="Layer_1"><path fill="#ff6900" d="M22.19 9.42c-1.722-2.111-4.128-4.16-7.28-6.01l-.012-.006C11.722 1.6 8.744.54 6.054.105 4.376-.166 3.574.15 3.21.36c-.365.21-1.04.747-1.643 2.337C.598 5.243.026 8.35 0 12.006v.013c.026 3.654.598 6.763 1.566 9.309.604 1.59 1.278 2.126 1.643 2.336.365.211 1.167.527 2.845.255 2.69-.434 5.668-1.494 8.844-3.298l.012-.007c3.152-1.849 5.558-3.899 7.28-6.01 1.073-1.318 1.201-2.17 1.201-2.592 0-.421-.128-1.273-1.202-2.591z"></path></g></svg>